<?xml version="1.0" standalone="no"?>
<!DOCTYPE svg PUBLIC "-//W3C//DTD SVG 20010904//EN"
 "http://www.w3.org/TR/2001/REC-SVG-20010904/DTD/svg10.dtd">
<svg version="1.0" xmlns="http://www.w3.org/2000/svg"
 width="1021.000000pt" height="462.000000pt" viewBox="0 0 1021.000000 462.000000"
 preserveAspectRatio="xMidYMid meet">

<g transform="translate(0.000000,462.000000) scale(0.100000,-0.100000)"
fill="#000000" stroke="none">
<path d="M0 2310 l0 -2310 5105 0 5105 0 0 2310 0 2310 -5105 0 -5105 0 0
-2310z m7223 1954 c56 -19 118 -84 135 -143 9 -29 13 -300 14 -1048 1 -554 4
-1021 7 -1036 6 -26 21 -12 251 245 628 698 664 736 728 766 49 22 63 24 165
20 96 -3 118 -7 157 -28 56 -32 90 -81 90 -132 0 -75 -21 -102 -396 -512 -391
-427 -388 -424 -376 -452 7 -13 110 -169 229 -345 120 -176 295 -434 390 -573
94 -139 177 -272 184 -295 20 -68 -2 -143 -60 -200 -28 -28 -62 -51 -87 -59
-63 -19 -156 -15 -219 9 -92 34 -58 -12 -548 723 -136 203 -247 373 -247 378
0 21 -25 2 -88 -64 -37 -40 -92 -98 -121 -130 l-52 -56 -4 -342 c-4 -318 -6
-344 -25 -388 -43 -97 -118 -142 -237 -142 -113 0 -187 41 -230 129 l-28 56
-3 557 -3 557 33 17 c60 31 94 63 124 116 68 123 16 292 -110 359 l-46 24 0
905 0 905 24 51 c26 56 84 111 137 130 49 18 158 17 212 -2z m-5428 -207 c226
-50 420 -159 548 -310 165 -194 257 -472 258 -783 1 -250 -77 -492 -221 -683
-93 -123 -230 -239 -329 -281 -17 -7 -31 -20 -31 -29 0 -17 4 -26 108 -216 62
-113 130 -239 216 -400 21 -38 51 -86 66 -105 15 -20 51 -82 79 -140 29 -57
60 -116 70 -130 10 -14 30 -50 46 -80 15 -30 39 -70 53 -88 68 -89 17 -268
-91 -324 -56 -29 -190 -31 -259 -5 -27 10 -48 23 -48 28 0 6 -5 7 -12 3 -6 -4
-8 -3 -5 3 4 6 -5 21 -19 34 -14 13 -48 62 -76 109 -28 47 -68 108 -89 136
-21 28 -39 54 -39 58 0 4 -13 24 -29 44 -33 43 -43 61 -110 202 -27 58 -73
148 -101 200 -28 52 -66 122 -83 155 -17 33 -34 62 -38 65 -3 3 -21 34 -39 70
-17 36 -53 102 -78 148 -39 71 -51 84 -81 93 -21 6 -120 9 -241 7 l-205 -3 -1
-610 c0 -669 2 -638 -61 -696 -50 -47 -92 -62 -169 -62 -95 1 -160 24 -213 75
-53 50 -79 105 -86 184 -11 107 -4 3214 6 3243 14 35 57 80 94 97 46 21 1110
13 1210 -9z m7752 -7 c70 -30 145 -109 168 -179 23 -69 18 -219 -9 -271 -35
-66 -85 -118 -144 -147 -49 -24 -69 -28 -142 -28 -98 0 -152 20 -218 80 -114
103 -135 315 -43 442 88 122 247 164 388 103z m-69 -980 c90 -17 161 -80 191
-171 8 -26 11 -324 12 -1135 0 -1087 0 -1101 -20 -1155 -37 -98 -116 -148
-234 -149 -107 0 -189 48 -233 137 -18 37 -19 79 -19 1173 0 1088 1 1136 19
1170 39 74 92 114 169 130 59 11 58 11 115 0z m-5768 -150 c280 -81 523 -311
626 -593 16 -42 33 -75 39 -73 197 90 317 96 472 26 37 -17 70 -27 74 -23 3 5
12 26 19 48 21 68 88 195 140 266 125 168 314 298 510 350 120 32 338 33 457
2 301 -80 563 -339 663 -658 35 -112 35 -112 76 -120 58 -10 90 -31 108 -69
36 -76 4 -151 -74 -175 -73 -22 -74 -24 -82 -87 -35 -277 -198 -538 -428 -686
-151 -97 -298 -139 -482 -140 -59 0 -120 3 -136 7 -27 6 -31 2 -66 -58 -79
-135 -245 -298 -386 -380 -63 -37 -170 -75 -270 -98 -113 -26 -364 -36 -493
-20 -191 24 -384 92 -499 174 -88 62 -245 230 -294 312 l-40 69 -140 -2 c-171
-3 -283 18 -408 76 -293 138 -481 375 -548 692 -11 52 -23 101 -27 109 -4 8
-25 19 -46 26 -60 17 -83 36 -100 78 -31 79 7 146 95 167 27 6 54 17 59 24 6
7 24 52 42 102 97 274 243 456 470 583 66 37 179 78 252 91 93 16 332 5 417
-20z"/>
<path d="M1113 3582 l-113 -3 0 -619 0 -619 45 -7 c25 -3 150 -4 278 -1 200 4
242 8 307 26 150 44 270 130 350 251 67 100 95 231 87 396 -9 184 -51 296
-152 403 -129 136 -228 169 -509 173 -99 2 -232 2 -293 0z"/>
<path d="M3304 2795 c-284 -62 -525 -296 -607 -590 -29 -103 -35 -319 -12
-422 58 -261 211 -462 440 -576 124 -62 172 -72 340 -71 182 1 269 23 396 100
196 118 329 300 385 524 26 104 26 317 0 415 -53 200 -182 393 -331 495 -75
51 -205 108 -287 125 -93 18 -240 18 -324 0z m170 -146 c53 -42 31 -65 -82
-89 -107 -22 -188 -56 -251 -107 -135 -109 -212 -243 -234 -404 l-12 -94 -40
0 c-39 0 -40 1 -43 37 -4 46 17 129 58 236 91 237 246 377 475 427 84 19 99
18 129 -6z"/>
<path d="M5715 2801 c-256 -41 -484 -208 -599 -437 -95 -190 -116 -417 -61
-635 40 -156 149 -325 276 -426 155 -123 260 -163 450 -171 144 -5 236 10 353
59 218 92 396 312 456 562 24 100 27 284 5 384 -69 325 -280 560 -576 643 -83
23 -228 33 -304 21z m135 -151 c24 -24 25 -32 3 -59 -13 -14 -38 -24 -88 -31
-98 -15 -154 -35 -224 -80 -147 -95 -244 -250 -273 -435 -10 -62 -16 -80 -35
-92 -21 -14 -26 -14 -48 1 -29 19 -31 41 -10 141 49 231 189 418 382 511 124
60 257 80 293 44z"/>
<path d="M4572 2179 c-50 -9 -107 -33 -144 -62 -14 -11 -18 -37 -22 -153 -7
-204 -37 -323 -118 -475 -23 -44 -64 -105 -90 -136 -38 -46 -46 -62 -42 -82
18 -79 137 -214 231 -264 139 -74 380 -75 530 -1 65 31 132 97 172 168 52 89
51 105 -6 183 -74 101 -108 168 -147 284 -37 112 -58 251 -55 378 2 85 1 86
-96 131 -69 32 -137 41 -213 29z"/>
</g>
</svg>
